<svg width="642" height="275" viewBox="0 0 642 275" fill="none" xmlns="http://www.w3.org/2000/svg">
<path d="M184 38.7197L273 95.2197L244.5 124.22L170 77.2197C152.485 66.7425 141.739 64.1824 121 65.2197C99.3021 66.2427 88.2352 70.6394 70 83.7197C54.8398 97.8958 49.5979 106.784 44 123.72C39.1324 144.274 39.6513 154.982 44 173.22C49.2284 190.083 54.2709 197.777 66 209.22C81.2204 223.94 90.9188 229.251 110 234.22C132.077 236.404 143.538 234.42 162.5 225.72L409.5 68.7197L391.5 54.7197L327 79.7197L312 42.7197L398 7.71968L445.5 45.7197L450.5 42.7197C450.912 33.5265 452.458 28.3814 458 19.2197C463.792 12.0799 467.713 8.67883 476.5 4.21968C485.848 0.619275 491.514 -0.534732 503 0.219678C512.515 2.49816 517.322 4.80904 525 10.7197C532.115 17.5664 535.212 21.6823 538.5 29.7197C540.518 38.0789 540.884 42.7885 540.5 51.2197C539.64 60.6875 537.941 65.7355 532.5 74.2197C527.516 81.6676 523.647 85.1744 514 89.7197C504.539 94.2723 498.814 95.0073 488 93.7197C478.246 91.26 473.119 88.8982 465 81.7197L462 83.7197L497 123.72L556 105.72L568 144.72L482 171.22L428 105.72L358 149.72L451.5 209.22C461.972 215.957 467.771 219.56 478 225.72C489.601 231.539 496.944 233.4 511.5 234.22C526.124 234.689 533.99 233.408 547.5 228.72C561.007 223.229 567.642 218.903 578 209.22C587.399 198.746 591.318 192.552 595 180.72C599.424 165.983 600.945 158.006 600.5 144.72C599.764 131.317 597.918 124.464 592.5 113.22C587.592 103.724 584.077 98.559 576 89.7197L605.5 61.7197C614.122 70.6529 618.326 76.059 625 86.2197C631.716 98.4718 634.325 105.372 637.5 117.72C640.624 131.544 641.354 139.321 641.5 153.22C640.957 167.842 639.27 175.808 634.5 189.72C630.097 202.92 626.471 209.553 619 220.72C610.896 232.134 605.595 237.782 595 246.72C580.871 257.474 572.261 262.031 556 268.22C535.145 274.254 523.543 275.274 503 273.22C481.195 270.766 470.343 267.29 453.5 257.22L321 173.22L189.5 257.22C172.657 266.412 162.603 269.62 144 273.22C121.685 275.161 109.109 274.358 86.5 267.72C66.925 261.072 57.0236 255.261 41 241.72C26.0913 227.156 19.3562 217.889 10.5 199.22C3.23482 180.372 0.73244 169.275 0 148.22C1.01835 125.968 3.68423 113.872 13.5 93.2197C24.9242 71.8822 33.8809 61.3488 55.5 45.7197C78.7256 31.0467 93.0754 26.3134 121 24.2197C147.178 24.9264 161.044 27.8741 184 38.7197Z" fill="url(#paint0_linear_0_1)"/>
<defs>
<linearGradient id="paint0_linear_0_1" x1="392.5" y1="118.5" x2="446" y2="336.5" gradientUnits="userSpaceOnUse">
<stop stop-color="#76D6EE"/>
<stop offset="1" stop-color="#0E0F39"/>
</linearGradient>
</defs>
</svg>
